/* XPM */
static const char *atrap[]={
"15 15 2 1",
"# c #ff0000",
". c #ffffff",
"...............",
"...............",
"...............",
".....#######...",
".....#######...",
"........####...",
".......#####...",
"......###.##...",
".....###..##...",
"....###...##...",
"...###.........",
"..###..........",
"...#...........",
"...............",
"..............."};
