/* XPM */
static const char *drink[]={
"15 15 3 1",
"a c #800000",
"# c #a0a0a0",
". c #ffffff",
"....#####......",
"....#####......",
"....#####......",
"...aaaaaaa.....",
"...aaaaaaaaaaa.",
"...aaaaaaaaaaa.",
"...aaaaaaa..aa.",
"...aaaaaaa..aa.",
"...aaaaaaa..aa.",
"...aaaaaaa..aa.",
"...aaaaaaaaaaa.",
"...aaaaaaaaaaa.",
"...aaaaaaa.....",
"...............",
"..............."};
