/* XPM */
static const char *food[]={
"15 15 3 1",
"a c #000080",
"# c #854a13",
". c #ffffff",
"...............",
"...............",
"...............",
"......###......",
".....#####.....",
"....#######....",
"....#######....",
"....#######....",
"....#######....",
".aa.#######.aa.",
".aa.#######.aa.",
".aaaaaaaaaaaaa.",
"..aaaaaaaaaaa..",
"...aaaaaaaaa...",
"..............."};
