/* XPM */
static const char *player[]={
"15 15 5 1",
"c c #000000",
"b c #404000",
"a c #ff00ff",
"# c #ffc0ff",
". c #ffffff",
"...............",
".....#aaa#.....",
"..b..acaca.....",
"..b..#aca#.....",
"..b....a.......",
"..b.aaaaaaa....",
"..baa.aaa.aa...",
"..ca..aaa..ac..",
"......aaa......",
".....aaaaa.....",
"....aaa.aaa....",
"...aaa...aaa...",
"..aaa.....aaa..",
".ccc.......ccc.",
"..............."};
