/* XPM */
static const char *rat[]={
"15 15 4 1",
"a c #000000",
"# c #854a13",
"b c #a3774e",
". c #ffffff",
"...............",
"..##.......##..",
"..#ab.....ba#..",
"..###########..",
"...#aa###aa#...",
"...#aa###aa#...",
"...#########...",
"...#########...",
"...###a#a###...",
"...b##a#a##b...",
"....b#####b....",
".....b###b.....",
"......b#b......",
"...............",
"..............."};
