/* XPM */
static const char *snake[]={
"15 15 5 1",
"c c #000000",
"# c #008000",
"b c #c0c000",
"a c #ff0000",
". c #ffffff",
"...............",
"........####...",
"......#######..",
"....##aa###bb..",
"...###aa##cb...",
"..######bbc....",
".######b..c....",
".######........",
".######b.......",
"..######bb.....",
"...#######b....",
"....#######bb..",
"......#######..",
"........####...",
"..............."};
