/* XPM */
static const char *ttrap[]={
"15 15 2 1",
"# c #0000ff",
". c #ffffff",
"...............",
"...............",
"...............",
"...#########...",
"...#########...",
"......###......",
"......###......",
"......###......",
"......###......",
"......###......",
"......###......",
"......###......",
"...............",
"...............",
"..............."};
