/* XPM */
static const char *up[]={
"20 20 2 1",
"# c #000000",
". c #ffffff",
"....................",
"....................",
"....................",
"....................",
"................####",
"................####",
"................####",
"................####",
"............########",
"............########",
"............########",
"............########",
"........############",
"........############",
"........############",
"........############",
"....################",
"....################",
"....################",
"....################"};
